<svg width="2560" height="257" viewBox="0 0 2560 257" fill="none" xmlns="http://www.w3.org/2000/svg">
<path d="M661.581 57.6338C711.924 57.6339 747.337 94.7839 747.337 148.599C747.337 157.278 746.295 165.611 745.948 169.083H607.767C612.975 200.677 635.542 219.426 672.344 219.426C693.175 219.426 713.312 213.524 728.589 202.761V240.952C714.354 250.326 691.092 256.575 667.483 256.575C606.725 256.575 566.104 214.912 566.104 158.32C566.104 100.339 606.725 57.6338 661.581 57.6338ZM983.971 57.6338C1041.6 57.6339 1083.27 99.9917 1083.27 157.278C1083.27 214.565 1041.6 256.575 983.971 256.575C925.99 256.575 884.326 214.565 884.326 157.278C884.326 99.9916 925.99 57.6338 983.971 57.6338ZM1318.76 57.9814C1347.23 57.9815 1370.49 70.4805 1383.34 92.3535V62.1475H1426.04V252.062H1383.34V218.037C1370.49 242.34 1347.23 255.881 1318.06 255.881C1267.03 255.881 1228.14 213.523 1228.14 157.278C1228.14 100.686 1267.37 57.9814 1318.76 57.9814ZM2022.66 57.9814C2051.13 57.9814 2074.4 70.4804 2087.24 92.3535V62.1475H2129.95V252.062H2087.24V218.037C2074.4 242.34 2051.13 255.881 2021.97 255.881C1970.93 255.881 1932.05 213.523 1932.05 157.278C1932.05 100.686 1971.28 57.9817 2022.66 57.9814ZM2311.61 173.249C2311.61 203.802 2324.11 219.426 2348.06 219.426C2375.84 219.426 2394.24 197.553 2394.24 165.611V62.1475H2436.6V252.062H2394.24V222.203C2383.13 243.382 2360.91 255.881 2333.83 255.881C2293.55 255.881 2268.9 228.105 2268.9 182.623V62.1475H2311.61V173.249ZM2523.89 57.9814C2537.43 57.9815 2550.28 61.1062 2560 66.6611V102.77C2552.36 97.5617 2541.25 93.7422 2530.84 93.7422C2514.87 93.7423 2504.45 102.423 2504.45 114.574C2504.45 121.865 2508.27 129.503 2516.6 138.183L2533.61 157.278C2544.38 170.124 2549.58 182.971 2549.58 198.247C2549.58 232.619 2522.85 255.881 2488.13 255.881C2474.24 255.881 2460.36 252.756 2449.59 246.854V210.398C2457.93 215.953 2469.38 219.426 2479.8 219.426C2495.77 219.426 2506.53 211.093 2506.53 198.247C2506.53 190.956 2503.06 183.665 2494.73 174.638L2477.37 155.542C2466.61 143.043 2462.09 129.85 2462.09 114.574C2462.09 81.2438 2488.83 57.9814 2523.89 57.9814ZM1187.89 58.3291C1202.81 58.3291 1216.7 61.1062 1227.47 65.9668V104.158C1217.74 98.6032 1205.59 95.4785 1192.4 95.4785C1156.99 95.4786 1133.03 120.129 1133.03 156.932C1133.03 193.386 1156.99 218.731 1192.4 218.731C1205.59 218.731 1217.74 215.259 1227.47 209.704V248.243C1216.7 252.757 1202.81 255.534 1187.89 255.534C1130.95 255.534 1089.63 214.218 1089.63 156.932C1089.63 99.2979 1130.95 58.3293 1187.89 58.3291ZM398.032 104.158H506.356V9.02734H549.755V252.062H506.356V143.044H398.032V252.062H354.633V9.02734H398.032V104.158ZM804.136 252.062H761.432V1.04199H804.136V252.062ZM869.75 252.062H827.045V62.1475H869.75V252.062ZM1551.67 57.9814C1591.94 57.9816 1616.59 85.7572 1616.59 131.239V252.062H1573.89V140.96C1573.89 110.06 1561.74 94.7843 1537.78 94.7842C1510 94.7842 1491.6 116.657 1491.6 148.599V252.062H1448.9V62.1475H1491.6V92.0059C1502.71 70.8274 1524.59 57.9814 1551.67 57.9814ZM1700.17 62.1475H1739.41V96.5195H1700.17V252.062H1657.47V96.5195H1622.4V62.1475H1657.47V25.6924H1700.17V62.1475ZM1793.71 92.0059C1804.83 70.8274 1826.7 57.9814 1853.78 57.9814C1894.05 57.9816 1918.7 85.7572 1918.7 131.239V252.062H1876V140.96C1876 110.06 1863.85 94.7843 1839.89 94.7842C1812.12 94.7842 1793.71 116.657 1793.71 148.599V252.062H1751.01V1.04199H1793.71V92.0059ZM2243.77 59.7178C2249.67 59.7178 2254.53 60.7592 2258 62.4951V105.547C2253.14 103.464 2247.59 102.77 2241.34 102.77C2212.52 102.77 2195.51 122.906 2195.51 155.89V252.062H2152.8V62.1475H2195.16V100.339C2204.19 74.6468 2221.89 59.7179 2243.77 59.7178ZM97.2354 9.06152C97.2354 13.9651 98.3762 18.8212 100.593 23.3516C102.809 27.8818 106.059 31.9984 110.154 35.4658C111.581 36.6734 113.102 37.7913 114.703 38.8184C123.354 34.6691 132.234 32.5586 141.165 32.5586C150.167 32.5587 159.116 34.7032 167.832 38.918C169.49 37.8641 171.063 36.7123 172.535 35.4658C176.631 31.9984 179.88 27.8818 182.097 23.3516C184.313 18.8212 185.454 13.9651 185.454 9.06152H225.573C225.573 18.4252 223.395 27.6977 219.162 36.3486C214.929 44.9997 208.725 52.8612 200.903 59.4824C200.414 59.897 199.918 60.3062 199.417 60.71C207.85 66.2584 215.635 70.9769 222.578 78.9229C225.019 81.7161 227.342 84.6303 229.547 87.6523L230.6 86.6006L240.669 38.1758L261.904 42.5918L250.517 97.3564L250.518 97.3574L241.137 106.736C243.537 111.545 245.677 116.532 247.537 121.671C248.1 123.227 248.635 124.794 249.145 126.371L282.728 134.103L276.706 153.409L254.402 148.274C255.661 156.114 256.301 164.087 256.301 172.097H234.461C234.412 172.327 234.36 172.558 234.31 172.788L250.519 188.997H250.518L261.904 243.763L240.669 248.179L230.6 199.752L226.677 195.829C222.579 204.862 217.369 213.151 211.201 220.42C202.977 230.113 193.213 237.802 182.468 243.048C171.723 248.293 160.206 250.993 148.575 250.993V147.146C146.192 146.219 143.689 145.743 141.165 145.743C138.768 145.743 136.391 146.173 134.116 147.01V250.993C122.486 250.993 110.969 248.293 100.224 243.048C89.4782 237.802 79.7144 230.113 71.4902 220.42C65.3224 213.151 60.1106 204.861 56.0127 195.828L52.0908 199.752L42.0225 248.179L20.7871 243.763L32.1729 188.997L48.3809 172.787C48.3303 172.557 48.2797 172.327 48.2305 172.097H26.0283C26.0283 164.12 26.6621 156.179 27.9111 148.369L6.02246 153.409L0 134.103L33.1514 126.47C33.6706 124.86 34.2171 123.259 34.792 121.671C36.6828 116.447 38.863 111.379 41.3125 106.496L32.1738 97.3574L20.7861 42.5908L42.0215 38.1758L52.0898 86.5996L52.9326 87.4424C55.0919 84.4949 57.3665 81.6518 59.751 78.9229C66.7487 70.9144 74.6023 66.1846 83.1113 60.5791C82.6653 60.2178 82.2231 59.8523 81.7861 59.4824C73.965 52.8612 67.7602 44.9996 63.5273 36.3486C59.2947 27.6977 57.1162 18.4252 57.1162 9.06152H97.2354ZM983.971 95.4785C950.293 95.4785 927.726 120.476 927.726 157.278C927.726 193.733 950.293 218.731 983.971 218.731C1017.3 218.731 1039.87 193.733 1039.87 157.278C1039.87 120.476 1017.3 95.4786 983.971 95.4785ZM1327.79 95.4785C1294.11 95.4787 1271.54 120.129 1271.54 156.932C1271.54 193.386 1294.11 218.731 1327.79 218.731C1363.89 218.731 1383.34 188.873 1383.34 162.486V151.376C1383.34 124.989 1363.89 95.4785 1327.79 95.4785ZM2031.69 95.4785C1998.01 95.4786 1975.45 120.129 1975.45 156.932C1975.45 193.387 1998.01 218.731 2031.69 218.731C2067.8 218.731 2087.24 188.873 2087.24 162.486V151.376C2087.24 124.989 2067.8 95.4785 2031.69 95.4785ZM660.887 93.0479C633.806 93.0479 613.322 109.019 607.767 137.488H707.758C707.758 110.755 688.662 93.0479 660.887 93.0479ZM848.571 0C860.723 0.000139641 870.444 9.37472 870.444 21.5264C870.444 33.3308 860.723 43.0516 848.571 43.0518C836.072 43.0518 826.698 33.3308 826.698 21.5264C826.698 9.37463 836.072 0 848.571 0Z" fill="#E9E7EE"/>
</svg>
