<svg width="1920" height="193" viewBox="0 0 1920 193" fill="none" xmlns="http://www.w3.org/2000/svg">
<path d="M496.186 43.2246C533.943 43.2246 560.503 71.0872 560.503 111.448C560.503 117.958 559.722 124.208 559.462 126.812H455.824C459.73 150.507 476.656 164.568 504.258 164.568C519.881 164.568 534.984 160.142 546.441 152.069V180.713C535.765 187.743 518.319 192.431 500.612 192.431C455.043 192.431 424.577 161.183 424.577 118.739C424.577 75.2535 455.043 43.2247 496.186 43.2246ZM737.978 43.2246C781.203 43.2246 812.45 74.993 812.45 117.958C812.45 160.923 781.203 192.431 737.978 192.431C694.492 192.431 663.245 160.923 663.245 117.958C663.245 74.9931 694.492 43.2248 737.978 43.2246ZM989.069 43.4854C1010.42 43.4855 1027.87 52.8599 1037.5 69.2646V46.6104H1069.53V189.046H1037.5V163.527C1027.87 181.755 1010.42 191.91 988.548 191.91C950.27 191.91 921.106 160.142 921.106 117.958C921.106 75.5138 950.531 43.4854 989.069 43.4854ZM1517 43.4854C1538.35 43.4855 1555.8 52.8599 1565.43 69.2646V46.6104H1597.46V189.046H1565.43V163.527C1555.8 181.755 1538.35 191.91 1516.48 191.91C1478.2 191.91 1449.04 160.142 1449.04 117.958C1449.04 75.5138 1478.46 43.4854 1517 43.4854ZM1733.71 129.937C1733.71 152.851 1743.08 164.568 1761.05 164.568C1781.88 164.568 1795.68 148.164 1795.68 124.208V46.6104H1827.45V189.046H1795.68V166.651C1787.35 182.535 1770.68 191.91 1750.37 191.91C1720.17 191.91 1701.68 171.078 1701.68 136.967V46.6104H1733.71V129.937ZM1892.92 43.4854C1903.07 43.4854 1912.71 45.8289 1920 49.9951V77.0762C1914.27 73.1703 1905.94 70.3057 1898.13 70.3057C1886.15 70.3057 1878.34 76.8159 1878.34 85.9297C1878.34 91.3979 1881.2 97.1269 1887.45 103.637L1900.21 117.958C1908.28 127.593 1912.19 137.227 1912.19 148.685C1912.19 174.464 1892.14 191.91 1866.1 191.91C1855.68 191.91 1845.27 189.566 1837.19 185.14V157.799C1843.44 161.965 1852.04 164.568 1859.85 164.568C1871.83 164.568 1879.9 158.319 1879.9 148.685C1879.9 143.216 1877.3 137.748 1871.05 130.978L1858.03 116.656C1849.95 107.282 1846.57 97.387 1846.57 85.9297C1846.57 60.9319 1866.62 43.4854 1892.92 43.4854ZM890.915 43.7461C902.112 43.7461 912.527 45.8291 920.6 49.4746V78.1182C913.309 73.9519 904.195 71.6084 894.3 71.6084C867.74 71.6084 849.773 90.0957 849.772 117.697C849.772 145.039 867.74 164.048 894.3 164.048C904.195 164.048 913.309 161.444 920.6 157.277V186.182C912.528 189.567 902.112 191.649 890.915 191.649C848.21 191.649 817.223 160.662 817.223 117.697C817.223 74.4721 848.211 43.7461 890.915 43.7461ZM73.2832 7.0459C73.2832 10.7385 74.1429 14.3951 75.8135 17.8066C77.4841 21.2182 79.9326 24.3186 83.0195 26.9297C84.0942 27.8387 85.2394 28.6819 86.4453 29.4551C92.9662 26.3298 99.659 24.7402 106.391 24.7402C113.175 24.7403 119.921 26.3549 126.49 29.5293C127.739 28.7358 128.925 27.8681 130.034 26.9297C133.121 24.3186 135.57 21.2182 137.24 17.8066C138.911 14.3951 139.77 10.7385 139.771 7.0459H170.007C170.007 14.0971 168.365 21.0793 165.175 27.5938C161.985 34.1082 157.309 40.0277 151.414 45.0137C151.044 45.3263 150.67 45.635 150.292 45.9395C156.647 50.1177 162.516 53.6697 167.749 59.6533C169.589 61.7568 171.341 63.9508 173.003 66.2266L173.795 65.4346L181.384 28.9697L197.388 32.2939L188.806 73.5352L181.736 80.5986C183.545 84.22 185.158 87.9753 186.56 91.8447C186.934 92.8792 187.262 94.0492 187.547 95.332L213.082 101.206L208.543 115.745L189.205 111.297C189.59 122.249 189.079 134.571 188.909 143.039L197.388 183.784L181.384 187.109L173.795 150.644L170.839 147.689C167.751 154.491 163.823 160.733 159.175 166.206C152.977 173.505 145.618 179.295 137.52 183.245C129.421 187.195 120.741 189.229 111.976 189.229V111.027C110.179 110.329 108.293 109.972 106.391 109.972C104.584 109.972 102.792 110.295 101.078 110.925V189.229C92.3125 189.229 83.6325 187.195 75.5342 183.245C67.4358 179.295 60.0772 173.505 53.8789 166.206C49.2308 160.733 45.3032 154.491 42.2148 147.689L39.2588 150.644L31.6699 187.109L15.666 183.784L24.248 142.543L24.2578 142.532C24.0385 134.094 23.4292 122.062 23.7051 111.336L4.53809 115.745L0 101.206L25.2275 95.4033C25.5107 94.0925 25.8401 92.8983 26.2217 91.8447C27.6467 87.9107 29.2887 84.0943 31.1348 80.417L24.248 73.5352L15.666 32.2939L31.6699 28.9697L39.2588 65.4346L39.8936 66.0693C41.5208 63.8498 43.2342 61.7083 45.0312 59.6533C50.3055 53.6223 56.2263 50.0623 62.6396 45.8408C62.303 45.5684 61.9694 45.2926 61.6396 45.0137C55.7451 40.0276 51.0691 34.1083 47.8789 27.5938C44.6888 21.0792 43.0469 14.0971 43.0469 7.0459H73.2832ZM298.524 78.1182H379.768V6.76953H412.316V189.046H379.768V107.282H298.524V189.046H265.975V6.76953H298.524V78.1182ZM603.102 189.046H571.073V0.78125H603.102V189.046ZM652.312 189.046H620.284V46.6104H652.312V189.046ZM1163.75 43.4854C1193.96 43.4855 1212.44 64.3172 1212.44 98.4287V189.046H1180.42V105.72C1180.42 82.5447 1171.3 71.087 1153.33 71.0869C1132.5 71.0869 1118.7 87.492 1118.7 111.448V189.046H1086.67V46.6104H1118.7V69.0039C1127.03 53.1199 1143.44 43.4854 1163.75 43.4854ZM1275.13 46.6104H1304.55V72.3887H1275.13V189.046H1243.1V72.3887H1216.8V46.6104H1243.1V19.2686H1275.13V46.6104ZM1345.29 69.0039C1353.62 53.12 1370.02 43.4854 1390.33 43.4854C1420.54 43.4854 1439.03 64.3171 1439.03 98.4287V189.046H1407V105.72C1407 82.5447 1397.89 71.0869 1379.92 71.0869C1359.09 71.0871 1345.29 87.4921 1345.29 111.448V189.046H1313.26V0.78125H1345.29V69.0039ZM1682.83 44.7871C1687.25 44.7871 1690.9 45.5683 1693.5 46.8701V79.1592C1689.86 77.5969 1685.69 77.0762 1681 77.0762C1659.39 77.0763 1646.63 92.1797 1646.63 116.917V189.046H1614.6V46.6104H1646.37V75.2539C1653.14 55.9847 1666.42 44.7871 1682.83 44.7871ZM737.978 71.6084C712.72 71.6086 695.794 90.3564 695.794 117.958C695.794 145.299 712.719 164.048 737.978 164.048C762.975 164.048 779.901 145.299 779.901 117.958C779.901 90.3563 762.975 71.6084 737.978 71.6084ZM995.839 71.6084C970.581 71.6086 953.655 90.0959 953.655 117.697C953.655 145.039 970.581 164.048 995.839 164.048C1022.92 164.048 1037.5 141.654 1037.5 121.864V113.531C1037.5 93.7413 1022.92 71.6084 995.839 71.6084ZM1523.77 71.6084C1498.51 71.6085 1481.58 90.0958 1481.58 117.697C1481.58 145.039 1498.51 164.048 1523.77 164.048C1550.85 164.048 1565.43 141.654 1565.43 121.864V113.531C1565.43 93.7413 1550.85 71.6084 1523.77 71.6084ZM495.665 69.7852C475.354 69.7852 459.991 81.7631 455.824 103.115H530.818C530.818 83.0652 516.496 69.7852 495.665 69.7852ZM636.429 0C645.542 0.000238547 652.833 7.03014 652.833 16.1436C652.833 24.9968 645.542 32.2878 636.429 32.2881C627.055 32.2881 620.023 24.9969 620.023 16.1436C620.024 7.02998 627.055 0 636.429 0Z" fill="white"/>
</svg>
