<svg width="1080" height="1080" viewBox="0 0 1080 1080" fill="none" xmlns="http://www.w3.org/2000/svg">
<g clip-path="url(#clip0_241_118)">
<rect width="1080" height="1080" rx="40" fill="#090817"/>
<path d="M447.878 564.92L233.083 779.713L198.469 946.197L125.461 931.017L164.609 742.732L395.149 512.192L447.878 564.92ZM915.263 742.732H915.262L954.411 931.017L881.404 946.197L846.789 779.714L631.995 564.92L684.722 512.192L915.263 742.732Z" fill="#19E597"/>
<path d="M441.28 536.004L74.7026 620.388L53.9995 554.01L420.577 469.626L441.28 536.004ZM1026 554.01L1005.3 620.388L638.719 536.004L659.422 469.626L1026 554.01Z" fill="#19E597"/>
<line y1="-37.2841" x2="326.033" y2="-37.2841" transform="matrix(-0.707107 -0.707107 -0.707107 0.707107 395.149 658.222)" stroke="#19E597" stroke-width="74.5682"/>
<line y1="-37.2841" x2="192.312" y2="-37.2841" transform="matrix(-0.203567 -0.979061 -0.979061 0.203567 164.609 427.682)" stroke="#19E597" stroke-width="74.5682"/>
<line x1="658.359" y1="631.858" x2="888.899" y2="401.318" stroke="#19E597" stroke-width="74.5682"/>
<line x1="878.76" y1="420.092" x2="917.908" y2="231.807" stroke="#19E597" stroke-width="74.5682"/>
<path d="M564.792 955.873C604.778 955.873 644.372 946.591 681.314 928.557C718.256 910.522 751.823 884.089 780.097 850.766C808.371 817.442 830.799 777.882 846.101 734.343C861.403 690.804 869.279 644.14 869.279 597.014C869.279 549.887 861.403 503.223 846.101 459.684C830.799 416.145 808.371 376.585 780.097 343.262C751.823 309.938 718.256 283.505 681.314 265.471C644.372 247.436 604.778 238.154 564.792 238.154V597.014V955.873Z" fill="#19E597"/>
<path d="M515.08 238.154C475.094 238.154 435.5 247.436 398.558 265.471C361.616 283.505 328.049 309.938 299.775 343.262C271.501 376.585 249.073 416.145 233.771 459.684C218.469 503.223 210.593 549.888 210.593 597.014C210.593 644.14 218.469 690.804 233.771 734.343C249.073 777.882 271.501 817.442 299.775 850.766C328.049 884.089 361.616 910.522 398.558 928.557C435.5 946.591 475.094 955.873 515.08 955.873L515.08 597.014L515.08 238.154Z" fill="#19E597"/>
<path d="M388.289 124.127C388.289 140.986 392.211 157.68 399.832 173.256C407.453 188.831 418.624 202.983 432.705 214.904C437.608 219.055 442.831 222.905 448.332 226.435C478.078 212.167 508.607 204.909 539.314 204.909C570.265 204.909 601.035 212.282 631.004 226.775C636.702 223.152 642.105 219.189 647.166 214.904C661.247 202.983 672.418 188.831 680.039 173.256C687.66 157.68 691.582 140.986 691.582 124.127H829.509C829.509 156.319 822.019 188.197 807.467 217.939C792.914 247.681 771.584 274.706 744.694 297.47C743.008 298.897 741.302 300.306 739.576 301.696C768.568 320.772 795.34 336.986 819.211 364.305C855.967 406.371 885.124 456.311 905.017 511.272C924.909 566.234 935.147 625.142 935.147 684.632H618.481C618.481 672.734 616.433 660.952 612.455 649.96C608.477 638.968 602.645 628.979 595.294 620.566C587.943 612.153 579.215 605.479 569.61 600.926C560.005 596.372 549.711 594.029 539.314 594.029C528.918 594.029 518.623 596.372 509.019 600.926C499.414 605.479 490.686 612.153 483.335 620.566C475.984 628.979 470.152 638.968 466.174 649.96C462.195 660.952 460.147 672.734 460.147 684.632H143.481C143.481 625.142 153.72 566.234 173.612 511.272C193.505 456.311 222.662 406.371 259.418 364.305C283.477 336.771 310.483 320.518 339.738 301.245C338.203 300.001 336.681 298.743 335.177 297.47C308.287 274.706 286.957 247.681 272.404 217.939C257.852 188.197 250.362 156.319 250.362 124.127H388.289Z" fill="#19E597"/>
</g>
<defs>
<clipPath id="clip0_241_118">
<rect width="1080" height="1080" fill="white"/>
</clipPath>
</defs>
</svg>
